<svg height="512pt" viewBox="0 -10 512 512" width="512pt" xmlns="http://www.w3.org/2000/svg"><path d="m496.074219 268.652344h-102.988281c-7.015626 0-13.203126 4.59375-15.242188 11.308594l-17.804688 58.765624h-208.074218l-17.808594-58.765624c-2.035156-6.714844-8.226562-11.308594-15.242188-11.308594h-102.988281c-8.792969 0-15.925781 7.132812-15.925781 15.925781v191.109375c0 8.796875 7.132812 15.929688 15.925781 15.929688h480.148438c8.792969 0 15.925781-7.132813 15.925781-15.929688v-191.109375c0-8.792969-7.128906-15.925781-15.925781-15.925781zm-15.925781 191.113281h-448.296876v-159.257813h75.246094l17.808594 58.765626c2.035156 6.714843 8.226562 11.304687 15.242188 11.304687h231.703124c7.015626 0 13.207032-4.589844 15.242188-11.304687l17.808594-58.765626h75.242187v159.257813zm0 0"/><path d="m244.515625 300.703125c3.003906 3.121094 7.152344 4.886719 11.484375 4.886719s8.480469-1.765625 11.484375-4.886719l104.414063-108.640625c4.425781-4.605469 5.671874-11.402344 3.171874-17.277344s-8.269531-9.6875-14.652343-9.6875h-35.011719v-149.171875c0-8.792969-7.128906-15.925781-15.925781-15.925781h-106.960938c-8.796875 0-15.929687 7.132812-15.929687 15.925781v149.171875h-35.007813c-6.382812 0-12.152343 3.8125-14.652343 9.6875-2.503907 5.871094-1.253907 12.671875 3.167968 17.273438zm-41.996094-103.753906c8.796875 0 15.925781-7.128907 15.925781-15.925781v-149.171876h75.109376v149.171876c0 8.796874 7.132812 15.925781 15.925781 15.925781h13.539062l-67.019531 69.730469-67.019531-69.730469zm0 0"/></svg>