<?xml version="1.0" encoding="utf-8"?>
<!-- Generator: Adobe Illustrator 23.0.6, SVG Export Plug-In . SVG Version: 6.00 Build 0)  -->
<svg version="1.1" id="Layer_1" xmlns="http://www.w3.org/2000/svg" xmlns:xlink="http://www.w3.org/1999/xlink" x="0px" y="0px"
	 viewBox="0 0 512 512" style="enable-background:new 0 0 512 512;" xml:space="preserve">
<path d="M234.3,512c-44.1,0-80-35.9-80-80c0-8.8,7.2-16,16-16s16,7.2,16,16c0,26.5,21.5,48,48,48s48-21.5,48-48c0-8.8,7.2-16,16-16
	s16,7.2,16,16C314.3,476.1,278.4,512,234.3,512z"/>
<path d="M410.3,448h-352C37.7,448,21,431.3,21,410.7c0-10.9,4.8-21.3,13.1-28.4c0.5-0.5,1.1-0.9,1.7-1.3
	C67.1,353.7,85,314.4,85,272.9v-59.5C85,131,152,64,234.3,64c3.4,0,7.1,0.1,10.5,0.6c8.7,1.4,14.6,9.7,13.2,18.4
	c-1.4,8.7-9.9,14.6-18.4,13.1c-1.7-0.3-3.6-0.2-5.3-0.2C169.7,96,117,148.6,117,213.3v59.5c0,51.5-22.6,100.3-61.9,133.8
	c-0.3,0.3-0.6,0.5-0.9,0.7c-0.6,0.7-1.1,1.8-1.1,3.3c0,2.9,2.4,5.3,5.3,5.3h352c2.9,0,5.3-2.4,5.3-5.3c0-1.5-0.6-2.6-1.2-3.3
	c-0.3-0.2-0.6-0.5-0.9-0.7c-39.4-33.5-61.9-82.2-61.9-133.8v-23.2c0-8.8,7.2-16,16-16s16,7.2,16,16v23.2
	c0,41.5,17.9,80.9,49.3,108.2c0.6,0.4,1.1,0.8,1.6,1.2c8.3,7.1,13.1,17.4,13.1,28.4C447.7,431.3,430.9,448,410.3,448z"/>
</svg>
