<svg id="Capa_1" enable-background="new 0 0 512 512" height="512" viewBox="0 0 512 512" width="512" xmlns="http://www.w3.org/2000/svg"><g clip-rule="evenodd" fill-rule="evenodd"><path d="m432.733 0h-128.533c-3.979 0-7.793 1.581-10.606 4.394l-289.2 289.2c-5.858 5.858-5.858 15.355 0 21.213l192.8 192.8c2.929 2.929 6.768 4.394 10.606 4.394s7.678-1.464 10.606-4.394l289.2-289.2c2.813-2.813 4.394-6.628 4.394-10.606v-128.534c0-43.708-35.559-79.267-79.267-79.267zm49.267 201.586-274.2 274.2-171.587-171.586 274.201-274.2h122.32c27.165 0 49.266 22.101 49.266 49.267z"/><path d="m272.067 241h-32.134c-9.354 0-17.133-7.539-17.133-17.133 0-9.572 7.757-17.133 17.133-17.133h48.2c8.284 0 15-6.716 15-15s-6.716-15-15-15h-17.133v-17.134c0-8.284-6.716-15-15-15s-15 6.716-15 15v17.133h-1.067c-25.484 0-47.133 20.557-47.133 47.133 0 26.577 21.647 47.133 47.133 47.133h32.134c9.354 0 17.133 7.539 17.133 17.133 0 9.572-7.757 17.133-17.133 17.133h-48.2c-8.284 0-15 6.716-15 15s6.716 15 15 15h17.133v17.135c0 8.284 6.716 15 15 15s15-6.716 15-15v-17.133h1.067c25.484 0 47.133-20.557 47.133-47.133 0-26.578-21.647-47.134-47.133-47.134z"/><path d="m432.733 64.267c-8.25 0-15 6.72-15 15s6.75 15 15 15 15-6.72 15-15-6.75-15-15-15z"/></g></svg>